<svg width="489" height="80" viewBox="0 0 489 80" fill="none" xmlns="http://www.w3.org/2000/svg">
<path d="M294.408 16.969V27H293.05V22.436H287.639V27H286.281V16.969H287.639V21.442H293.05V16.969H294.408ZM300.316 23.808C299.742 23.8267 299.252 23.8733 298.846 23.948C298.445 24.018 298.116 24.1113 297.859 24.228C297.607 24.3447 297.423 24.4823 297.306 24.641C297.194 24.7997 297.138 24.977 297.138 25.173C297.138 25.3597 297.169 25.5207 297.229 25.656C297.29 25.7913 297.372 25.9033 297.474 25.992C297.582 26.076 297.705 26.139 297.845 26.181C297.99 26.2183 298.144 26.237 298.307 26.237C298.527 26.237 298.727 26.216 298.909 26.174C299.091 26.1273 299.262 26.062 299.42 25.978C299.584 25.894 299.738 25.7937 299.882 25.677C300.032 25.5603 300.176 25.4273 300.316 25.278V23.808ZM296.291 20.91C296.683 20.532 297.106 20.2497 297.558 20.063C298.011 19.8763 298.513 19.783 299.063 19.783C299.46 19.783 299.812 19.8483 300.12 19.979C300.428 20.1097 300.687 20.2917 300.897 20.525C301.107 20.7583 301.266 21.0407 301.373 21.372C301.481 21.7033 301.534 22.0673 301.534 22.464V27H300.981C300.86 27 300.767 26.9813 300.701 26.944C300.636 26.902 300.585 26.8227 300.547 26.706L300.407 26.034C300.221 26.2067 300.039 26.3607 299.861 26.496C299.684 26.6267 299.497 26.7387 299.301 26.832C299.105 26.9207 298.895 26.9883 298.671 27.035C298.452 27.0863 298.207 27.112 297.936 27.112C297.661 27.112 297.402 27.0747 297.159 27C296.917 26.9207 296.704 26.804 296.522 26.65C296.345 26.496 296.203 26.3023 296.095 26.069C295.993 25.831 295.941 25.551 295.941 25.229C295.941 24.949 296.018 24.6807 296.172 24.424C296.326 24.1627 296.576 23.9317 296.921 23.731C297.267 23.5303 297.717 23.367 298.272 23.241C298.828 23.1103 299.509 23.0357 300.316 23.017V22.464C300.316 21.9133 300.197 21.498 299.959 21.218C299.721 20.9333 299.374 20.791 298.916 20.791C298.608 20.791 298.349 20.8307 298.139 20.91C297.934 20.9847 297.754 21.071 297.6 21.169C297.451 21.2623 297.32 21.3487 297.208 21.428C297.101 21.5027 296.994 21.54 296.886 21.54C296.802 21.54 296.73 21.519 296.669 21.477C296.609 21.4303 296.557 21.3743 296.515 21.309L296.291 20.91ZM308.318 26.09V20.889H306.071C306.025 21.617 305.959 22.261 305.875 22.821C305.791 23.381 305.693 23.8733 305.581 24.298C305.474 24.718 305.353 25.075 305.217 25.369C305.087 25.663 304.949 25.9033 304.804 26.09H308.318ZM310.824 26.055V29.058C310.824 29.1793 310.789 29.2727 310.719 29.338C310.654 29.408 310.568 29.443 310.46 29.443H309.697V27H303.733V29.086C303.733 29.1747 303.705 29.2563 303.649 29.331C303.598 29.4057 303.512 29.443 303.39 29.443H302.606V26.09H302.837C303.001 26.09 303.162 26.062 303.32 26.006C303.484 25.95 303.64 25.845 303.789 25.691C303.939 25.5323 304.079 25.3107 304.209 25.026C304.345 24.7413 304.466 24.3703 304.573 23.913C304.681 23.4557 304.774 22.9003 304.853 22.247C304.933 21.589 304.996 20.8097 305.042 19.909H309.529V26.055H310.824ZM316.71 22.681C316.71 22.3917 316.668 22.128 316.584 21.89C316.504 21.6473 316.385 21.4397 316.227 21.267C316.073 21.0897 315.884 20.9543 315.66 20.861C315.436 20.763 315.181 20.714 314.897 20.714C314.299 20.714 313.826 20.889 313.476 21.239C313.13 21.5843 312.916 22.065 312.832 22.681H316.71ZM317.718 26.006C317.564 26.1927 317.379 26.356 317.165 26.496C316.95 26.6313 316.719 26.7433 316.472 26.832C316.229 26.9207 315.977 26.986 315.716 27.028C315.454 27.0747 315.195 27.098 314.939 27.098C314.449 27.098 313.996 27.0163 313.581 26.853C313.17 26.685 312.813 26.4423 312.51 26.125C312.211 25.803 311.978 25.4063 311.81 24.935C311.642 24.4637 311.558 23.9223 311.558 23.311C311.558 22.8163 311.632 22.3543 311.782 21.925C311.936 21.4957 312.155 21.1247 312.44 20.812C312.724 20.4947 313.072 20.2473 313.483 20.07C313.893 19.888 314.355 19.797 314.869 19.797C315.293 19.797 315.685 19.8693 316.045 20.014C316.409 20.154 316.721 20.3593 316.983 20.63C317.249 20.896 317.456 21.2273 317.606 21.624C317.755 22.016 317.83 22.464 317.83 22.968C317.83 23.164 317.809 23.2947 317.767 23.36C317.725 23.4253 317.645 23.458 317.529 23.458H312.79C312.804 23.906 312.864 24.2957 312.972 24.627C313.084 24.9583 313.238 25.236 313.434 25.46C313.63 25.6793 313.863 25.845 314.134 25.957C314.404 26.0643 314.708 26.118 315.044 26.118C315.356 26.118 315.625 26.083 315.849 26.013C316.077 25.9383 316.273 25.859 316.437 25.775C316.6 25.691 316.735 25.614 316.843 25.544C316.955 25.4693 317.05 25.432 317.13 25.432C317.232 25.432 317.312 25.4717 317.368 25.551L317.718 26.006ZM329.175 27H328.307C328.083 27 327.911 26.965 327.789 26.895C327.673 26.825 327.582 26.7153 327.516 26.566L326.137 24.361C325.909 23.997 325.58 23.815 325.15 23.815H324.436V27.007H323.225V23.815H322.518C322.308 23.815 322.117 23.8617 321.944 23.955C321.776 24.0483 321.639 24.1837 321.531 24.361L320.152 26.566C320.082 26.7153 319.987 26.825 319.865 26.895C319.749 26.965 319.578 27 319.354 27H318.493L320.355 24.067C320.477 23.8617 320.614 23.696 320.768 23.57C320.922 23.444 321.111 23.3483 321.335 23.283C321.158 23.227 321.006 23.1453 320.88 23.038C320.759 22.926 320.645 22.7837 320.537 22.611L318.689 19.909H319.669C319.791 19.909 319.9 19.9417 319.998 20.007C320.096 20.0677 320.173 20.1517 320.229 20.259L321.734 22.499C321.837 22.653 321.961 22.772 322.105 22.856C322.25 22.9353 322.42 22.975 322.616 22.975H323.225V19.909H324.436V22.975H325.031C325.428 22.975 325.727 22.8163 325.927 22.499L327.432 20.259C327.488 20.1517 327.565 20.0677 327.663 20.007C327.766 19.9417 327.878 19.909 327.999 19.909H328.979L327.131 22.611C327.024 22.7837 326.907 22.926 326.781 23.038C326.66 23.1453 326.511 23.227 326.333 23.283C326.557 23.3483 326.746 23.444 326.9 23.57C327.054 23.696 327.192 23.8617 327.313 24.067L329.175 27ZM336.247 19.909V27H334.994V23.682H331.592V27H330.339V19.909H331.592V22.737H334.994V19.909H336.247ZM340.95 26.09C341.202 26.09 341.419 26.0597 341.601 25.999C341.788 25.9337 341.942 25.845 342.063 25.733C342.185 25.6163 342.276 25.481 342.336 25.327C342.397 25.173 342.427 25.005 342.427 24.823C342.427 24.655 342.402 24.4987 342.35 24.354C342.299 24.2047 342.213 24.074 342.091 23.962C341.975 23.85 341.821 23.7613 341.629 23.696C341.438 23.6307 341.205 23.598 340.929 23.598H339.417V26.09H340.95ZM340.929 22.688C341.419 22.688 341.83 22.7463 342.161 22.863C342.497 22.9797 342.766 23.136 342.966 23.332C343.172 23.528 343.319 23.7543 343.407 24.011C343.496 24.2677 343.54 24.5337 343.54 24.809C343.54 25.1263 343.484 25.4203 343.372 25.691C343.26 25.957 343.095 26.188 342.875 26.384C342.656 26.5753 342.385 26.727 342.063 26.839C341.741 26.9463 341.37 27 340.95 27H338.227V19.909H339.417V22.688H340.929ZM346.347 19.909V27H345.101V19.909H346.347ZM354.414 19.909V27H353.168V22.184C353.168 22.0907 353.172 21.9903 353.182 21.883C353.191 21.7757 353.203 21.6683 353.217 21.561C353.175 21.6543 353.133 21.7407 353.091 21.82C353.049 21.8993 353.004 21.9717 352.958 22.037L349.535 26.692C349.483 26.7667 349.418 26.839 349.339 26.909C349.264 26.9743 349.18 27.007 349.087 27.007H348.331V19.916H349.584V24.732C349.584 24.8207 349.579 24.9187 349.57 25.026C349.56 25.1287 349.549 25.2337 349.535 25.341C349.577 25.2523 349.619 25.1707 349.661 25.096C349.703 25.0167 349.745 24.9443 349.787 24.879L353.21 20.224C353.261 20.1493 353.326 20.0793 353.406 20.014C353.485 19.944 353.571 19.909 353.665 19.909H354.414ZM351.453 18.194C351.644 18.194 351.805 18.173 351.936 18.131C352.066 18.0843 352.171 18.012 352.251 17.914C352.335 17.816 352.395 17.69 352.433 17.536C352.47 17.382 352.489 17.193 352.489 16.969H353.217C353.305 16.969 353.373 17.0087 353.42 17.088C353.466 17.1673 353.49 17.2537 353.49 17.347C353.49 17.5803 353.443 17.7903 353.35 17.977C353.256 18.1637 353.121 18.3247 352.944 18.46C352.771 18.5907 352.559 18.691 352.307 18.761C352.055 18.831 351.77 18.866 351.453 18.866C351.135 18.866 350.851 18.831 350.599 18.761C350.347 18.691 350.132 18.5907 349.955 18.46C349.782 18.3247 349.649 18.1637 349.556 17.977C349.462 17.7903 349.416 17.5803 349.416 17.347C349.416 17.2537 349.439 17.1673 349.486 17.088C349.532 17.0087 349.6 16.969 349.689 16.969H350.417C350.417 17.193 350.435 17.382 350.473 17.536C350.51 17.69 350.568 17.816 350.648 17.914C350.732 18.012 350.839 18.0843 350.97 18.131C351.1 18.173 351.261 18.194 351.453 18.194ZM364.901 21.169C364.863 21.2203 364.826 21.26 364.789 21.288C364.751 21.316 364.7 21.33 364.635 21.33C364.565 21.33 364.488 21.302 364.404 21.246C364.32 21.1853 364.215 21.12 364.089 21.05C363.967 20.98 363.816 20.917 363.634 20.861C363.456 20.8003 363.237 20.77 362.976 20.77C362.626 20.77 362.318 20.833 362.052 20.959C361.786 21.0803 361.562 21.2577 361.38 21.491C361.202 21.7243 361.067 22.0067 360.974 22.338C360.885 22.6693 360.841 23.0403 360.841 23.451C360.841 23.8803 360.89 24.263 360.988 24.599C361.086 24.9303 361.223 25.2103 361.401 25.439C361.583 25.663 361.8 25.8357 362.052 25.957C362.308 26.0737 362.595 26.132 362.913 26.132C363.216 26.132 363.466 26.097 363.662 26.027C363.858 25.9523 364.019 25.8707 364.145 25.782C364.275 25.6933 364.383 25.614 364.467 25.544C364.555 25.4693 364.642 25.432 364.726 25.432C364.828 25.432 364.908 25.4717 364.964 25.551L365.314 26.006C365.16 26.1973 364.985 26.3607 364.789 26.496C364.593 26.6313 364.38 26.7457 364.152 26.839C363.928 26.9277 363.692 26.993 363.445 27.035C363.197 27.077 362.945 27.098 362.689 27.098C362.245 27.098 361.832 27.0163 361.45 26.853C361.072 26.6897 360.743 26.454 360.463 26.146C360.183 25.8333 359.963 25.4507 359.805 24.998C359.646 24.5453 359.567 24.0297 359.567 23.451C359.567 22.9237 359.639 22.436 359.784 21.988C359.933 21.54 360.148 21.155 360.428 20.833C360.712 20.5063 361.06 20.252 361.471 20.07C361.886 19.888 362.362 19.797 362.899 19.797C363.398 19.797 363.837 19.8787 364.215 20.042C364.597 20.2007 364.936 20.427 365.23 20.721L364.901 21.169ZM371.274 22.681C371.274 22.3917 371.232 22.128 371.148 21.89C371.069 21.6473 370.95 21.4397 370.791 21.267C370.637 21.0897 370.448 20.9543 370.224 20.861C370 20.763 369.746 20.714 369.461 20.714C368.864 20.714 368.39 20.889 368.04 21.239C367.695 21.5843 367.48 22.065 367.396 22.681H371.274ZM372.282 26.006C372.128 26.1927 371.944 26.356 371.729 26.496C371.514 26.6313 371.283 26.7433 371.036 26.832C370.793 26.9207 370.541 26.986 370.28 27.028C370.019 27.0747 369.76 27.098 369.503 27.098C369.013 27.098 368.56 27.0163 368.145 26.853C367.734 26.685 367.377 26.4423 367.074 26.125C366.775 25.803 366.542 25.4063 366.374 24.935C366.206 24.4637 366.122 23.9223 366.122 23.311C366.122 22.8163 366.197 22.3543 366.346 21.925C366.5 21.4957 366.719 21.1247 367.004 20.812C367.289 20.4947 367.636 20.2473 368.047 20.07C368.458 19.888 368.92 19.797 369.433 19.797C369.858 19.797 370.25 19.8693 370.609 20.014C370.973 20.154 371.286 20.3593 371.547 20.63C371.813 20.896 372.021 21.2273 372.17 21.624C372.319 22.016 372.394 22.464 372.394 22.968C372.394 23.164 372.373 23.2947 372.331 23.36C372.289 23.4253 372.21 23.458 372.093 23.458H367.354C367.368 23.906 367.429 24.2957 367.536 24.627C367.648 24.9583 367.802 25.236 367.998 25.46C368.194 25.6793 368.427 25.845 368.698 25.957C368.969 26.0643 369.272 26.118 369.608 26.118C369.921 26.118 370.189 26.083 370.413 26.013C370.642 25.9383 370.838 25.859 371.001 25.775C371.164 25.691 371.3 25.614 371.407 25.544C371.519 25.4693 371.615 25.432 371.694 25.432C371.797 25.432 371.876 25.4717 371.932 25.551L372.282 26.006ZM375.178 25.292C375.406 25.6 375.656 25.817 375.927 25.943C376.197 26.069 376.501 26.132 376.837 26.132C377.499 26.132 378.008 25.8963 378.363 25.425C378.717 24.9537 378.895 24.2817 378.895 23.409C378.895 22.947 378.853 22.5503 378.769 22.219C378.689 21.8877 378.573 21.617 378.419 21.407C378.265 21.1923 378.076 21.036 377.852 20.938C377.628 20.84 377.373 20.791 377.089 20.791C376.683 20.791 376.326 20.8843 376.018 21.071C375.714 21.2577 375.434 21.5213 375.178 21.862V25.292ZM375.115 21.008C375.413 20.6393 375.759 20.343 376.151 20.119C376.543 19.895 376.991 19.783 377.495 19.783C377.905 19.783 378.276 19.8623 378.608 20.021C378.939 20.175 379.221 20.406 379.455 20.714C379.688 21.0173 379.868 21.3953 379.994 21.848C380.12 22.3007 380.183 22.821 380.183 23.409C380.183 23.9317 380.113 24.4193 379.972 24.872C379.833 25.32 379.63 25.7097 379.364 26.041C379.102 26.3677 378.78 26.6267 378.398 26.818C378.02 27.0047 377.593 27.098 377.117 27.098C376.683 27.098 376.309 27.0257 375.997 26.881C375.689 26.7317 375.416 26.5263 375.178 26.265V29.401H373.925V19.909H374.674C374.851 19.909 374.961 19.9953 375.003 20.168L375.115 21.008ZM384.481 26.125C384.948 26.125 385.317 26.0177 385.587 25.803C385.858 25.5837 385.993 25.285 385.993 24.907C385.993 24.739 385.968 24.5873 385.916 24.452C385.865 24.312 385.781 24.1907 385.664 24.088C385.548 23.9853 385.391 23.906 385.195 23.85C385.004 23.794 384.768 23.766 384.488 23.766H382.955V26.125H384.481ZM382.955 20.749V22.975H384.32C384.526 22.975 384.715 22.947 384.887 22.891C385.065 22.8303 385.216 22.7487 385.342 22.646C385.468 22.5387 385.566 22.4127 385.636 22.268C385.706 22.1187 385.741 21.9553 385.741 21.778C385.741 21.6473 385.718 21.5213 385.671 21.4C385.625 21.274 385.545 21.1643 385.433 21.071C385.321 20.973 385.174 20.896 384.992 20.84C384.81 20.7793 384.586 20.749 384.32 20.749H382.955ZM384.355 19.909C384.794 19.909 385.17 19.9533 385.482 20.042C385.795 20.1307 386.052 20.252 386.252 20.406C386.453 20.5553 386.6 20.7327 386.693 20.938C386.787 21.1433 386.833 21.3627 386.833 21.596C386.833 21.75 386.812 21.911 386.77 22.079C386.728 22.247 386.654 22.408 386.546 22.562C386.444 22.716 386.301 22.856 386.119 22.982C385.942 23.1033 385.718 23.199 385.447 23.269C385.989 23.3623 386.406 23.5513 386.7 23.836C386.994 24.116 387.141 24.487 387.141 24.949C387.141 25.2943 387.071 25.5953 386.931 25.852C386.796 26.104 386.607 26.3163 386.364 26.489C386.126 26.6617 385.846 26.79 385.524 26.874C385.202 26.958 384.857 27 384.488 27H381.758V19.909H384.355ZM394.787 19.909V27H393.541V22.184C393.541 22.0907 393.545 21.9903 393.555 21.883C393.564 21.7757 393.576 21.6683 393.59 21.561C393.548 21.6543 393.506 21.7407 393.464 21.82C393.422 21.8993 393.377 21.9717 393.331 22.037L389.908 26.692C389.856 26.7667 389.791 26.839 389.712 26.909C389.637 26.9743 389.553 27.007 389.46 27.007H388.704V19.916H389.957V24.732C389.957 24.8207 389.952 24.9187 389.943 25.026C389.933 25.1287 389.922 25.2337 389.908 25.341C389.95 25.2523 389.992 25.1707 390.034 25.096C390.076 25.0167 390.118 24.9443 390.16 24.879L393.583 20.224C393.634 20.1493 393.699 20.0793 393.779 20.014C393.858 19.944 393.944 19.909 394.038 19.909H394.787ZM401.692 21.169C401.654 21.2203 401.617 21.26 401.58 21.288C401.542 21.316 401.491 21.33 401.426 21.33C401.356 21.33 401.279 21.302 401.195 21.246C401.111 21.1853 401.006 21.12 400.88 21.05C400.758 20.98 400.607 20.917 400.425 20.861C400.247 20.8003 400.028 20.77 399.767 20.77C399.417 20.77 399.109 20.833 398.843 20.959C398.577 21.0803 398.353 21.2577 398.171 21.491C397.993 21.7243 397.858 22.0067 397.765 22.338C397.676 22.6693 397.632 23.0403 397.632 23.451C397.632 23.8803 397.681 24.263 397.779 24.599C397.877 24.9303 398.014 25.2103 398.192 25.439C398.374 25.663 398.591 25.8357 398.843 25.957C399.099 26.0737 399.386 26.132 399.704 26.132C400.007 26.132 400.257 26.097 400.453 26.027C400.649 25.9523 400.81 25.8707 400.936 25.782C401.066 25.6933 401.174 25.614 401.258 25.544C401.346 25.4693 401.433 25.432 401.517 25.432C401.619 25.432 401.699 25.4717 401.755 25.551L402.105 26.006C401.951 26.1973 401.776 26.3607 401.58 26.496C401.384 26.6313 401.171 26.7457 400.943 26.839C400.719 26.9277 400.483 26.993 400.236 27.035C399.988 27.077 399.736 27.098 399.48 27.098C399.036 27.098 398.623 27.0163 398.241 26.853C397.863 26.6897 397.534 26.454 397.254 26.146C396.974 25.8333 396.754 25.4507 396.596 24.998C396.437 24.5453 396.358 24.0297 396.358 23.451C396.358 22.9237 396.43 22.436 396.575 21.988C396.724 21.54 396.939 21.155 397.219 20.833C397.503 20.5063 397.851 20.252 398.262 20.07C398.677 19.888 399.153 19.797 399.69 19.797C400.189 19.797 400.628 19.8787 401.006 20.042C401.388 20.2007 401.727 20.427 402.021 20.721L401.692 21.169ZM289.83 41.808C289.256 41.8267 288.766 41.8733 288.36 41.948C287.959 42.018 287.63 42.1113 287.373 42.228C287.121 42.3447 286.937 42.4823 286.82 42.641C286.708 42.7997 286.652 42.977 286.652 43.173C286.652 43.3597 286.682 43.5207 286.743 43.656C286.804 43.7913 286.885 43.9033 286.988 43.992C287.095 44.076 287.219 44.139 287.359 44.181C287.504 44.2183 287.658 44.237 287.821 44.237C288.04 44.237 288.241 44.216 288.423 44.174C288.605 44.1273 288.775 44.062 288.934 43.978C289.097 43.894 289.251 43.7937 289.396 43.677C289.545 43.5603 289.69 43.4273 289.83 43.278V41.808ZM285.805 38.91C286.197 38.532 286.619 38.2497 287.072 38.063C287.525 37.8763 288.026 37.783 288.577 37.783C288.974 37.783 289.326 37.8483 289.634 37.979C289.942 38.1097 290.201 38.2917 290.411 38.525C290.621 38.7583 290.78 39.0407 290.887 39.372C290.994 39.7033 291.048 40.0673 291.048 40.464V45H290.495C290.374 45 290.28 44.9813 290.215 44.944C290.15 44.902 290.098 44.8227 290.061 44.706L289.921 44.034C289.734 44.2067 289.552 44.3607 289.375 44.496C289.198 44.6267 289.011 44.7387 288.815 44.832C288.619 44.9207 288.409 44.9883 288.185 45.035C287.966 45.0863 287.721 45.112 287.45 45.112C287.175 45.112 286.916 45.0747 286.673 45C286.43 44.9207 286.218 44.804 286.036 44.65C285.859 44.496 285.716 44.3023 285.609 44.069C285.506 43.831 285.455 43.551 285.455 43.229C285.455 42.949 285.532 42.6807 285.686 42.424C285.84 42.1627 286.09 41.9317 286.435 41.731C286.78 41.5303 287.231 41.367 287.786 41.241C288.341 41.1103 289.023 41.0357 289.83 41.017V40.464C289.83 39.9133 289.711 39.498 289.473 39.218C289.235 38.9333 288.887 38.791 288.43 38.791C288.122 38.791 287.863 38.8307 287.653 38.91C287.448 38.9847 287.268 39.071 287.114 39.169C286.965 39.2623 286.834 39.3487 286.722 39.428C286.615 39.5027 286.507 39.54 286.4 39.54C286.316 39.54 286.244 39.519 286.183 39.477C286.122 39.4303 286.071 39.3743 286.029 39.309L285.805 38.91ZM298.854 37.909V45H297.601V41.682H294.199V45H292.946V37.909H294.199V40.737H297.601V37.909H298.854ZM304.678 41.808C304.104 41.8267 303.614 41.8733 303.208 41.948C302.806 42.018 302.477 42.1113 302.221 42.228C301.969 42.3447 301.784 42.4823 301.668 42.641C301.556 42.7997 301.5 42.977 301.5 43.173C301.5 43.3597 301.53 43.5207 301.591 43.656C301.651 43.7913 301.733 43.9033 301.836 43.992C301.943 44.076 302.067 44.139 302.207 44.181C302.351 44.2183 302.505 44.237 302.669 44.237C302.888 44.237 303.089 44.216 303.271 44.174C303.453 44.1273 303.623 44.062 303.782 43.978C303.945 43.894 304.099 43.7937 304.244 43.677C304.393 43.5603 304.538 43.4273 304.678 43.278V41.808ZM300.653 38.91C301.045 38.532 301.467 38.2497 301.92 38.063C302.372 37.8763 302.874 37.783 303.425 37.783C303.821 37.783 304.174 37.8483 304.482 37.979C304.79 38.1097 305.049 38.2917 305.259 38.525C305.469 38.7583 305.627 39.0407 305.735 39.372C305.842 39.7033 305.896 40.0673 305.896 40.464V45H305.343C305.221 45 305.128 44.9813 305.063 44.944C304.997 44.902 304.946 44.8227 304.909 44.706L304.769 44.034C304.582 44.2067 304.4 44.3607 304.223 44.496C304.045 44.6267 303.859 44.7387 303.663 44.832C303.467 44.9207 303.257 44.9883 303.033 45.035C302.813 45.0863 302.568 45.112 302.298 45.112C302.022 45.112 301.763 45.0747 301.521 45C301.278 44.9207 301.066 44.804 300.884 44.65C300.706 44.496 300.564 44.3023 300.457 44.069C300.354 43.831 300.303 43.551 300.303 43.229C300.303 42.949 300.38 42.6807 300.534 42.424C300.688 42.1627 300.937 41.9317 301.283 41.731C301.628 41.5303 302.078 41.367 302.634 41.241C303.189 41.1103 303.87 41.0357 304.678 41.017V40.464C304.678 39.9133 304.559 39.498 304.321 39.218C304.083 38.9333 303.735 38.791 303.278 38.791C302.97 38.791 302.711 38.8307 302.501 38.91C302.295 38.9847 302.116 39.071 301.962 39.169C301.812 39.2623 301.682 39.3487 301.57 39.428C301.462 39.5027 301.355 39.54 301.248 39.54C301.164 39.54 301.091 39.519 301.031 39.477C300.97 39.4303 300.919 39.3743 300.877 39.309L300.653 38.91ZM314.01 45H312.764V38.889H310.524C310.468 39.7897 310.384 40.569 310.272 41.227C310.16 41.8803 310.024 42.438 309.866 42.9C309.712 43.3573 309.537 43.7307 309.341 44.02C309.149 44.3047 308.946 44.5263 308.732 44.685C308.522 44.8437 308.302 44.951 308.074 45.007C307.85 45.063 307.626 45.091 307.402 45.091C307.005 45.091 306.807 45.028 306.807 44.902V44.111H307.171C307.329 44.111 307.49 44.083 307.654 44.027C307.817 43.971 307.976 43.8637 308.13 43.705C308.288 43.5463 308.44 43.3247 308.585 43.04C308.729 42.7507 308.86 42.3773 308.977 41.92C309.098 41.458 309.201 40.9003 309.285 40.247C309.373 39.589 309.441 38.8097 309.488 37.909H314.01V45ZM322.066 37.909V45H320.82V40.184C320.82 40.0907 320.825 39.9903 320.834 39.883C320.843 39.7757 320.855 39.6683 320.869 39.561C320.827 39.6543 320.785 39.7407 320.743 39.82C320.701 39.8993 320.657 39.9717 320.61 40.037L317.187 44.692C317.136 44.7667 317.07 44.839 316.991 44.909C316.916 44.9743 316.832 45.007 316.739 45.007H315.983V37.916H317.236V42.732C317.236 42.8207 317.231 42.9187 317.222 43.026C317.213 43.1287 317.201 43.2337 317.187 43.341C317.229 43.2523 317.271 43.1707 317.313 43.096C317.355 43.0167 317.397 42.9443 317.439 42.879L320.862 38.224C320.913 38.1493 320.979 38.0793 321.058 38.014C321.137 37.944 321.224 37.909 321.317 37.909H322.066ZM329.93 38.861H327.207V45H325.961V38.861H323.238V37.909H329.93V38.861ZM337.201 37.909V45H335.955V40.184C335.955 40.0907 335.96 39.9903 335.969 39.883C335.978 39.7757 335.99 39.6683 336.004 39.561C335.962 39.6543 335.92 39.7407 335.878 39.82C335.836 39.8993 335.792 39.9717 335.745 40.037L332.322 44.692C332.271 44.7667 332.205 44.839 332.126 44.909C332.051 44.9743 331.967 45.007 331.874 45.007H331.118V37.916H332.371V42.732C332.371 42.8207 332.366 42.9187 332.357 43.026C332.348 43.1287 332.336 43.2337 332.322 43.341C332.364 43.2523 332.406 43.1707 332.448 43.096C332.49 43.0167 332.532 42.9443 332.574 42.879L335.997 38.224C336.048 38.1493 336.114 38.0793 336.193 38.014C336.272 37.944 336.359 37.909 336.452 37.909H337.201ZM343.476 38.259C343.541 38.1563 343.627 38.0723 343.735 38.007C343.842 37.9417 343.956 37.909 344.078 37.909H345.051L343.21 40.611C343.098 40.7837 342.981 40.926 342.86 41.038C342.738 41.1453 342.589 41.2293 342.412 41.29C342.636 41.3507 342.825 41.4463 342.979 41.577C343.133 41.703 343.27 41.8663 343.392 42.067L345.254 45H344.386C344.162 45 343.989 44.9627 343.868 44.888C343.746 44.8133 343.641 44.706 343.553 44.566L342.174 42.361C341.954 41.997 341.625 41.815 341.187 41.815H340.424V45.007H339.171V37.909H340.424V40.975H341.096C341.469 40.975 341.761 40.8163 341.971 40.499L343.476 38.259ZM352.5 37.909V45H351.254V40.184C351.254 40.0907 351.258 39.9903 351.268 39.883C351.277 39.7757 351.289 39.6683 351.303 39.561C351.261 39.6543 351.219 39.7407 351.177 39.82C351.135 39.8993 351.09 39.9717 351.044 40.037L347.621 44.692C347.569 44.7667 347.504 44.839 347.425 44.909C347.35 44.9743 347.266 45.007 347.173 45.007H346.417V37.916H347.67V42.732C347.67 42.8207 347.665 42.9187 347.656 43.026C347.646 43.1287 347.635 43.2337 347.621 43.341C347.663 43.2523 347.705 43.1707 347.747 43.096C347.789 43.0167 347.831 42.9443 347.873 42.879L351.296 38.224C351.347 38.1493 351.412 38.0793 351.492 38.014C351.571 37.944 351.657 37.909 351.751 37.909H352.5ZM362.937 44.09V38.889H360.69C360.644 39.617 360.578 40.261 360.494 40.821C360.41 41.381 360.312 41.8733 360.2 42.298C360.093 42.718 359.972 43.075 359.836 43.369C359.706 43.663 359.568 43.9033 359.423 44.09H362.937ZM365.443 44.055V47.058C365.443 47.1793 365.408 47.2727 365.338 47.338C365.273 47.408 365.187 47.443 365.079 47.443H364.316V45H358.352V47.086C358.352 47.1747 358.324 47.2563 358.268 47.331C358.217 47.4057 358.131 47.443 358.009 47.443H357.225V44.09H357.456C357.62 44.09 357.781 44.062 357.939 44.006C358.103 43.95 358.259 43.845 358.408 43.691C358.558 43.5323 358.698 43.3107 358.828 43.026C358.964 42.7413 359.085 42.3703 359.192 41.913C359.3 41.4557 359.393 40.9003 359.472 40.247C359.552 39.589 359.615 38.8097 359.661 37.909H364.148V44.055H365.443ZM372.922 45H371.676V38.889H369.436C369.38 39.7897 369.296 40.569 369.184 41.227C369.072 41.8803 368.936 42.438 368.778 42.9C368.624 43.3573 368.449 43.7307 368.253 44.02C368.061 44.3047 367.858 44.5263 367.644 44.685C367.434 44.8437 367.214 44.951 366.986 45.007C366.762 45.063 366.538 45.091 366.314 45.091C365.917 45.091 365.719 45.028 365.719 44.902V44.111H366.083C366.241 44.111 366.402 44.083 366.566 44.027C366.729 43.971 366.888 43.8637 367.042 43.705C367.2 43.5463 367.352 43.3247 367.497 43.04C367.641 42.7507 367.772 42.3773 367.889 41.92C368.01 41.458 368.113 40.9003 368.197 40.247C368.285 39.589 368.353 38.8097 368.4 37.909H372.922V45ZM378.626 41.22V38.749H377.436C377.17 38.749 376.946 38.7887 376.764 38.868C376.582 38.9427 376.435 39.0407 376.323 39.162C376.216 39.2787 376.139 39.4117 376.092 39.561C376.046 39.7057 376.022 39.8503 376.022 39.995C376.022 40.3777 376.162 40.6787 376.442 40.898C376.722 41.1127 377.105 41.22 377.59 41.22H378.626ZM379.816 37.909V45H378.626V42.011H378.08C377.95 42.011 377.84 42.0227 377.751 42.046C377.667 42.0647 377.593 42.0927 377.527 42.13C377.467 42.1673 377.413 42.2163 377.366 42.277C377.32 42.333 377.271 42.3983 377.219 42.473L375.665 44.566C375.586 44.7153 375.488 44.825 375.371 44.895C375.259 44.965 375.094 45 374.874 45H374.006L376.064 42.326C376.232 42.046 376.454 41.8593 376.729 41.766C376.37 41.7193 376.067 41.6353 375.819 41.514C375.572 41.3927 375.369 41.2503 375.21 41.087C375.056 40.919 374.944 40.7347 374.874 40.534C374.804 40.3333 374.769 40.1303 374.769 39.925C374.769 39.6823 374.816 39.4397 374.909 39.197C375.007 38.9543 375.161 38.7397 375.371 38.553C375.581 38.3617 375.852 38.2077 376.183 38.091C376.519 37.9697 376.925 37.909 377.401 37.909H379.816ZM391.29 45H390.037V38.861H386.635V45H385.382V37.909H391.29V45ZM396.259 37.797C396.777 37.797 397.244 37.8833 397.659 38.056C398.075 38.2287 398.429 38.4737 398.723 38.791C399.017 39.1083 399.241 39.4933 399.395 39.946C399.554 40.394 399.633 40.8957 399.633 41.451C399.633 42.011 399.554 42.515 399.395 42.963C399.241 43.411 399.017 43.7937 398.723 44.111C398.429 44.4283 398.075 44.6733 397.659 44.846C397.244 45.014 396.777 45.098 396.259 45.098C395.737 45.098 395.265 45.014 394.845 44.846C394.43 44.6733 394.075 44.4283 393.781 44.111C393.487 43.7937 393.261 43.411 393.102 42.963C392.948 42.515 392.871 42.011 392.871 41.451C392.871 40.8957 392.948 40.394 393.102 39.946C393.261 39.4933 393.487 39.1083 393.781 38.791C394.075 38.4737 394.43 38.2287 394.845 38.056C395.265 37.8833 395.737 37.797 396.259 37.797ZM396.259 44.125C396.959 44.125 397.482 43.8917 397.827 43.425C398.173 42.9537 398.345 42.298 398.345 41.458C398.345 40.6133 398.173 39.9553 397.827 39.484C397.482 39.0127 396.959 38.777 396.259 38.777C395.905 38.777 395.594 38.8377 395.328 38.959C395.067 39.0803 394.848 39.2553 394.67 39.484C394.498 39.7127 394.367 39.995 394.278 40.331C394.194 40.6623 394.152 41.038 394.152 41.458C394.152 42.298 394.325 42.9537 394.67 43.425C395.02 43.8917 395.55 44.125 396.259 44.125ZM406.149 39.169C406.111 39.2203 406.074 39.26 406.037 39.288C405.999 39.316 405.948 39.33 405.883 39.33C405.813 39.33 405.736 39.302 405.652 39.246C405.568 39.1853 405.463 39.12 405.337 39.05C405.215 38.98 405.064 38.917 404.882 38.861C404.704 38.8003 404.485 38.77 404.224 38.77C403.874 38.77 403.566 38.833 403.3 38.959C403.034 39.0803 402.81 39.2577 402.628 39.491C402.45 39.7243 402.315 40.0067 402.222 40.338C402.133 40.6693 402.089 41.0403 402.089 41.451C402.089 41.8803 402.138 42.263 402.236 42.599C402.334 42.9303 402.471 43.2103 402.649 43.439C402.831 43.663 403.048 43.8357 403.3 43.957C403.556 44.0737 403.843 44.132 404.161 44.132C404.464 44.132 404.714 44.097 404.91 44.027C405.106 43.9523 405.267 43.8707 405.393 43.782C405.523 43.6933 405.631 43.614 405.715 43.544C405.803 43.4693 405.89 43.432 405.974 43.432C406.076 43.432 406.156 43.4717 406.212 43.551L406.562 44.006C406.408 44.1973 406.233 44.3607 406.037 44.496C405.841 44.6313 405.628 44.7457 405.4 44.839C405.176 44.9277 404.94 44.993 404.693 45.035C404.445 45.077 404.193 45.098 403.937 45.098C403.493 45.098 403.08 45.0163 402.698 44.853C402.32 44.6897 401.991 44.454 401.711 44.146C401.431 43.8333 401.211 43.4507 401.053 42.998C400.894 42.5453 400.815 42.0297 400.815 41.451C400.815 40.9237 400.887 40.436 401.032 39.988C401.181 39.54 401.396 39.155 401.676 38.833C401.96 38.5063 402.308 38.252 402.719 38.07C403.134 37.888 403.61 37.797 404.147 37.797C404.646 37.797 405.085 37.8787 405.463 38.042C405.845 38.2007 406.184 38.427 406.478 38.721L406.149 39.169ZM413.793 38.861H411.07V45H409.824V38.861H407.101V37.909H413.793V38.861ZM418.756 41.808C418.182 41.8267 417.692 41.8733 417.286 41.948C416.884 42.018 416.555 42.1113 416.299 42.228C416.047 42.3447 415.862 42.4823 415.746 42.641C415.634 42.7997 415.578 42.977 415.578 43.173C415.578 43.3597 415.608 43.5207 415.669 43.656C415.729 43.7913 415.811 43.9033 415.914 43.992C416.021 44.076 416.145 44.139 416.285 44.181C416.429 44.2183 416.583 44.237 416.747 44.237C416.966 44.237 417.167 44.216 417.349 44.174C417.531 44.1273 417.701 44.062 417.86 43.978C418.023 43.894 418.177 43.7937 418.322 43.677C418.471 43.5603 418.616 43.4273 418.756 43.278V41.808ZM414.731 38.91C415.123 38.532 415.545 38.2497 415.998 38.063C416.45 37.8763 416.952 37.783 417.503 37.783C417.899 37.783 418.252 37.8483 418.56 37.979C418.868 38.1097 419.127 38.2917 419.337 38.525C419.547 38.7583 419.705 39.0407 419.813 39.372C419.92 39.7033 419.974 40.0673 419.974 40.464V45H419.421C419.299 45 419.206 44.9813 419.141 44.944C419.075 44.902 419.024 44.8227 418.987 44.706L418.847 44.034C418.66 44.2067 418.478 44.3607 418.301 44.496C418.123 44.6267 417.937 44.7387 417.741 44.832C417.545 44.9207 417.335 44.9883 417.111 45.035C416.891 45.0863 416.646 45.112 416.376 45.112C416.1 45.112 415.841 45.0747 415.599 45C415.356 44.9207 415.144 44.804 414.962 44.65C414.784 44.496 414.642 44.3023 414.535 44.069C414.432 43.831 414.381 43.551 414.381 43.229C414.381 42.949 414.458 42.6807 414.612 42.424C414.766 42.1627 415.015 41.9317 415.361 41.731C415.706 41.5303 416.156 41.367 416.712 41.241C417.267 41.1103 417.948 41.0357 418.756 41.017V40.464C418.756 39.9133 418.637 39.498 418.399 39.218C418.161 38.9333 417.813 38.791 417.356 38.791C417.048 38.791 416.789 38.8307 416.579 38.91C416.373 38.9847 416.194 39.071 416.04 39.169C415.89 39.2623 415.76 39.3487 415.648 39.428C415.54 39.5027 415.433 39.54 415.326 39.54C415.242 39.54 415.169 39.519 415.109 39.477C415.048 39.4303 414.997 39.3743 414.955 39.309L414.731 38.91ZM424.595 44.125C425.061 44.125 425.43 44.0177 425.701 43.803C425.971 43.5837 426.107 43.285 426.107 42.907C426.107 42.739 426.081 42.5873 426.03 42.452C425.978 42.312 425.894 42.1907 425.778 42.088C425.661 41.9853 425.505 41.906 425.309 41.85C425.117 41.794 424.882 41.766 424.602 41.766H423.069V44.125H424.595ZM423.069 38.749V40.975H424.434C424.639 40.975 424.828 40.947 425.001 40.891C425.178 40.8303 425.33 40.7487 425.456 40.646C425.582 40.5387 425.68 40.4127 425.75 40.268C425.82 40.1187 425.855 39.9553 425.855 39.778C425.855 39.6473 425.831 39.5213 425.785 39.4C425.738 39.274 425.659 39.1643 425.547 39.071C425.435 38.973 425.288 38.896 425.106 38.84C424.924 38.7793 424.7 38.749 424.434 38.749H423.069ZM424.469 37.909C424.907 37.909 425.283 37.9533 425.596 38.042C425.908 38.1307 426.165 38.252 426.366 38.406C426.566 38.5553 426.713 38.7327 426.807 38.938C426.9 39.1433 426.947 39.3627 426.947 39.596C426.947 39.75 426.926 39.911 426.884 40.079C426.842 40.247 426.767 40.408 426.66 40.562C426.557 40.716 426.415 40.856 426.233 40.982C426.055 41.1033 425.831 41.199 425.561 41.269C426.102 41.3623 426.52 41.5513 426.814 41.836C427.108 42.116 427.255 42.487 427.255 42.949C427.255 43.2943 427.185 43.5953 427.045 43.852C426.909 44.104 426.72 44.3163 426.478 44.489C426.24 44.6617 425.96 44.79 425.638 44.874C425.316 44.958 424.97 45 424.602 45H421.872V37.909H424.469ZM439.66 44.055V47.058C439.66 47.1793 439.625 47.2727 439.555 47.338C439.49 47.408 439.403 47.443 439.296 47.443H438.526V45H428.817V37.909H430.07V44.055H432.961V37.909H434.214V44.055H437.105V37.909H438.358V44.055H439.66ZM447 37.909V45H445.754V40.184C445.754 40.0907 445.758 39.9903 445.768 39.883C445.777 39.7757 445.789 39.6683 445.803 39.561C445.761 39.6543 445.719 39.7407 445.677 39.82C445.635 39.8993 445.59 39.9717 445.544 40.037L442.121 44.692C442.069 44.7667 442.004 44.839 441.925 44.909C441.85 44.9743 441.766 45.007 441.673 45.007H440.917V37.916H442.17V42.732C442.17 42.8207 442.165 42.9187 442.156 43.026C442.146 43.1287 442.135 43.2337 442.121 43.341C442.163 43.2523 442.205 43.1707 442.247 43.096C442.289 43.0167 442.331 42.9443 442.373 42.879L445.796 38.224C445.847 38.1493 445.912 38.0793 445.992 38.014C446.071 37.944 446.157 37.909 446.251 37.909H447ZM453.274 38.259C453.34 38.1563 453.426 38.0723 453.533 38.007C453.641 37.9417 453.755 37.909 453.876 37.909H454.849L453.008 40.611C452.896 40.7837 452.78 40.926 452.658 41.038C452.537 41.1453 452.388 41.2293 452.21 41.29C452.434 41.3507 452.623 41.4463 452.777 41.577C452.931 41.703 453.069 41.8663 453.19 42.067L455.052 45H454.184C453.96 45 453.788 44.9627 453.666 44.888C453.545 44.8133 453.44 44.706 453.351 44.566L451.972 42.361C451.753 41.997 451.424 41.815 450.985 41.815H450.222V45.007H448.969V37.909H450.222V40.975H450.894C451.268 40.975 451.559 40.8163 451.769 40.499L453.274 38.259ZM458.931 37.797C459.449 37.797 459.916 37.8833 460.331 38.056C460.746 38.2287 461.101 38.4737 461.395 38.791C461.689 39.1083 461.913 39.4933 462.067 39.946C462.226 40.394 462.305 40.8957 462.305 41.451C462.305 42.011 462.226 42.515 462.067 42.963C461.913 43.411 461.689 43.7937 461.395 44.111C461.101 44.4283 460.746 44.6733 460.331 44.846C459.916 45.014 459.449 45.098 458.931 45.098C458.408 45.098 457.937 45.014 457.517 44.846C457.102 44.6733 456.747 44.4283 456.453 44.111C456.159 43.7937 455.933 43.411 455.774 42.963C455.62 42.515 455.543 42.011 455.543 41.451C455.543 40.8957 455.62 40.394 455.774 39.946C455.933 39.4933 456.159 39.1083 456.453 38.791C456.747 38.4737 457.102 38.2287 457.517 38.056C457.937 37.8833 458.408 37.797 458.931 37.797ZM458.931 44.125C459.631 44.125 460.154 43.8917 460.499 43.425C460.844 42.9537 461.017 42.298 461.017 41.458C461.017 40.6133 460.844 39.9553 460.499 39.484C460.154 39.0127 459.631 38.777 458.931 38.777C458.576 38.777 458.266 38.8377 458 38.959C457.739 39.0803 457.519 39.2553 457.342 39.484C457.169 39.7127 457.039 39.995 456.95 40.331C456.866 40.6623 456.824 41.038 456.824 41.458C456.824 42.298 456.997 42.9537 457.342 43.425C457.692 43.8917 458.222 44.125 458.931 44.125ZM466.608 44.125C467.075 44.125 467.444 44.0177 467.714 43.803C467.985 43.5837 468.12 43.285 468.12 42.907C468.12 42.739 468.095 42.5873 468.043 42.452C467.992 42.312 467.908 42.1907 467.791 42.088C467.675 41.9853 467.518 41.906 467.322 41.85C467.131 41.794 466.895 41.766 466.615 41.766H465.082V44.125H466.608ZM465.082 38.749V40.975H466.447C466.653 40.975 466.842 40.947 467.014 40.891C467.192 40.8303 467.343 40.7487 467.469 40.646C467.595 40.5387 467.693 40.4127 467.763 40.268C467.833 40.1187 467.868 39.9553 467.868 39.778C467.868 39.6473 467.845 39.5213 467.798 39.4C467.752 39.274 467.672 39.1643 467.56 39.071C467.448 38.973 467.301 38.896 467.119 38.84C466.937 38.7793 466.713 38.749 466.447 38.749H465.082ZM466.482 37.909C466.921 37.909 467.297 37.9533 467.609 38.042C467.922 38.1307 468.179 38.252 468.379 38.406C468.58 38.5553 468.727 38.7327 468.82 38.938C468.914 39.1433 468.96 39.3627 468.96 39.596C468.96 39.75 468.939 39.911 468.897 40.079C468.855 40.247 468.781 40.408 468.673 40.562C468.571 40.716 468.428 40.856 468.246 40.982C468.069 41.1033 467.845 41.199 467.574 41.269C468.116 41.3623 468.533 41.5513 468.827 41.836C469.121 42.116 469.268 42.487 469.268 42.949C469.268 43.2943 469.198 43.5953 469.058 43.852C468.923 44.104 468.734 44.3163 468.491 44.489C468.253 44.6617 467.973 44.79 467.651 44.874C467.329 44.958 466.984 45 466.615 45H463.885V37.909H466.482ZM291.895 55.909V63H290.642V59.682H287.24V63H285.987V55.909H287.24V58.737H290.642V55.909H291.895ZM297.719 59.808C297.145 59.8267 296.655 59.8733 296.249 59.948C295.847 60.018 295.518 60.1113 295.262 60.228C295.01 60.3447 294.825 60.4823 294.709 60.641C294.597 60.7997 294.541 60.977 294.541 61.173C294.541 61.3597 294.571 61.5207 294.632 61.656C294.692 61.7913 294.774 61.9033 294.877 61.992C294.984 62.076 295.108 62.139 295.248 62.181C295.392 62.2183 295.546 62.237 295.71 62.237C295.929 62.237 296.13 62.216 296.312 62.174C296.494 62.1273 296.664 62.062 296.823 61.978C296.986 61.894 297.14 61.7937 297.285 61.677C297.434 61.5603 297.579 61.4273 297.719 61.278V59.808ZM293.694 56.91C294.086 56.532 294.508 56.2497 294.961 56.063C295.413 55.8763 295.915 55.783 296.466 55.783C296.862 55.783 297.215 55.8483 297.523 55.979C297.831 56.1097 298.09 56.2917 298.3 56.525C298.51 56.7583 298.668 57.0407 298.776 57.372C298.883 57.7033 298.937 58.0673 298.937 58.464V63H298.384C298.262 63 298.169 62.9813 298.104 62.944C298.038 62.902 297.987 62.8227 297.95 62.706L297.81 62.034C297.623 62.2067 297.441 62.3607 297.264 62.496C297.086 62.6267 296.9 62.7387 296.704 62.832C296.508 62.9207 296.298 62.9883 296.074 63.035C295.854 63.0863 295.609 63.112 295.339 63.112C295.063 63.112 294.804 63.0747 294.562 63C294.319 62.9207 294.107 62.804 293.925 62.65C293.747 62.496 293.605 62.3023 293.498 62.069C293.395 61.831 293.344 61.551 293.344 61.229C293.344 60.949 293.421 60.6807 293.575 60.424C293.729 60.1627 293.978 59.9317 294.324 59.731C294.669 59.5303 295.119 59.367 295.675 59.241C296.23 59.1103 296.911 59.0357 297.719 59.017V58.464C297.719 57.9133 297.6 57.498 297.362 57.218C297.124 56.9333 296.776 56.791 296.319 56.791C296.011 56.791 295.752 56.8307 295.542 56.91C295.336 56.9847 295.157 57.071 295.003 57.169C294.853 57.2623 294.723 57.3487 294.611 57.428C294.503 57.5027 294.396 57.54 294.289 57.54C294.205 57.54 294.132 57.519 294.072 57.477C294.011 57.4303 293.96 57.3743 293.918 57.309L293.694 56.91ZM312.32 55.888V63H311.193V58.289C311.193 58.1583 311.2 58.0137 311.214 57.855C311.232 57.6917 311.256 57.54 311.284 57.4L308.82 61.719C308.782 61.789 308.733 61.845 308.673 61.887C308.612 61.929 308.542 61.95 308.463 61.95H308.323C308.243 61.95 308.171 61.929 308.106 61.887C308.045 61.845 307.996 61.789 307.959 61.719L305.453 57.386C305.476 57.526 305.497 57.68 305.516 57.848C305.534 58.0113 305.544 58.1583 305.544 58.289V63H304.417V55.888H305.418C305.506 55.888 305.593 55.909 305.677 55.951C305.761 55.9883 305.833 56.0607 305.894 56.168L308.106 59.864C308.213 60.0787 308.309 60.305 308.393 60.543C308.472 60.2957 308.565 60.0693 308.673 59.864L310.843 56.168C310.903 56.056 310.976 55.9813 311.06 55.944C311.144 55.9067 311.23 55.888 311.319 55.888H312.32ZM318.131 59.808C317.557 59.8267 317.067 59.8733 316.661 59.948C316.259 60.018 315.93 60.1113 315.674 60.228C315.422 60.3447 315.237 60.4823 315.121 60.641C315.009 60.7997 314.953 60.977 314.953 61.173C314.953 61.3597 314.983 61.5207 315.044 61.656C315.104 61.7913 315.186 61.9033 315.289 61.992C315.396 62.076 315.52 62.139 315.66 62.181C315.804 62.2183 315.958 62.237 316.122 62.237C316.341 62.237 316.542 62.216 316.724 62.174C316.906 62.1273 317.076 62.062 317.235 61.978C317.398 61.894 317.552 61.7937 317.697 61.677C317.846 61.5603 317.991 61.4273 318.131 61.278V59.808ZM314.106 56.91C314.498 56.532 314.92 56.2497 315.373 56.063C315.825 55.8763 316.327 55.783 316.878 55.783C317.274 55.783 317.627 55.8483 317.935 55.979C318.243 56.1097 318.502 56.2917 318.712 56.525C318.922 56.7583 319.08 57.0407 319.188 57.372C319.295 57.7033 319.349 58.0673 319.349 58.464V63H318.796C318.674 63 318.581 62.9813 318.516 62.944C318.45 62.902 318.399 62.8227 318.362 62.706L318.222 62.034C318.035 62.2067 317.853 62.3607 317.676 62.496C317.498 62.6267 317.312 62.7387 317.116 62.832C316.92 62.9207 316.71 62.9883 316.486 63.035C316.266 63.0863 316.021 63.112 315.751 63.112C315.475 63.112 315.216 63.0747 314.974 63C314.731 62.9207 314.519 62.804 314.337 62.65C314.159 62.496 314.017 62.3023 313.91 62.069C313.807 61.831 313.756 61.551 313.756 61.229C313.756 60.949 313.833 60.6807 313.987 60.424C314.141 60.1627 314.39 59.9317 314.736 59.731C315.081 59.5303 315.531 59.367 316.087 59.241C316.642 59.1103 317.323 59.0357 318.131 59.017V58.464C318.131 57.9133 318.012 57.498 317.774 57.218C317.536 56.9333 317.188 56.791 316.731 56.791C316.423 56.791 316.164 56.8307 315.954 56.91C315.748 56.9847 315.569 57.071 315.415 57.169C315.265 57.2623 315.135 57.3487 315.023 57.428C314.915 57.5027 314.808 57.54 314.701 57.54C314.617 57.54 314.544 57.519 314.484 57.477C314.423 57.4303 314.372 57.3743 314.33 57.309L314.106 56.91ZM322.5 61.292C322.728 61.6 322.978 61.817 323.249 61.943C323.519 62.069 323.823 62.132 324.159 62.132C324.821 62.132 325.33 61.8963 325.685 61.425C326.039 60.9537 326.217 60.2817 326.217 59.409C326.217 58.947 326.175 58.5503 326.091 58.219C326.011 57.8877 325.895 57.617 325.741 57.407C325.587 57.1923 325.398 57.036 325.174 56.938C324.95 56.84 324.695 56.791 324.411 56.791C324.005 56.791 323.648 56.8843 323.34 57.071C323.036 57.2577 322.756 57.5213 322.5 57.862V61.292ZM322.437 57.008C322.735 56.6393 323.081 56.343 323.473 56.119C323.865 55.895 324.313 55.783 324.817 55.783C325.227 55.783 325.598 55.8623 325.93 56.021C326.261 56.175 326.543 56.406 326.777 56.714C327.01 57.0173 327.19 57.3953 327.316 57.848C327.442 58.3007 327.505 58.821 327.505 59.409C327.505 59.9317 327.435 60.4193 327.295 60.872C327.155 61.32 326.952 61.7097 326.686 62.041C326.424 62.3677 326.102 62.6267 325.72 62.818C325.342 63.0047 324.915 63.098 324.439 63.098C324.005 63.098 323.631 63.0257 323.319 62.881C323.011 62.7317 322.738 62.5263 322.5 62.265V65.401H321.247V55.909H321.996C322.173 55.909 322.283 55.9953 322.325 56.168L322.437 57.008ZM333.386 56.259C333.451 56.1563 333.537 56.0723 333.645 56.007C333.752 55.9417 333.866 55.909 333.988 55.909H334.961L333.12 58.611C333.008 58.7837 332.891 58.926 332.77 59.038C332.648 59.1453 332.499 59.2293 332.322 59.29C332.546 59.3507 332.735 59.4463 332.889 59.577C333.043 59.703 333.18 59.8663 333.302 60.067L335.164 63H334.296C334.072 63 333.899 62.9627 333.778 62.888C333.656 62.8133 333.551 62.706 333.463 62.566L332.084 60.361C331.864 59.997 331.535 59.815 331.097 59.815H330.334V63.007H329.081V55.909H330.334V58.975H331.006C331.379 58.975 331.671 58.8163 331.881 58.499L333.386 56.259ZM340.799 58.681C340.799 58.3917 340.757 58.128 340.673 57.89C340.594 57.6473 340.475 57.4397 340.316 57.267C340.162 57.0897 339.973 56.9543 339.749 56.861C339.525 56.763 339.271 56.714 338.986 56.714C338.389 56.714 337.915 56.889 337.565 57.239C337.22 57.5843 337.005 58.065 336.921 58.681H340.799ZM341.807 62.006C341.653 62.1927 341.469 62.356 341.254 62.496C341.04 62.6313 340.809 62.7433 340.561 62.832C340.319 62.9207 340.067 62.986 339.805 63.028C339.544 63.0747 339.285 63.098 339.028 63.098C338.538 63.098 338.086 63.0163 337.67 62.853C337.26 62.685 336.903 62.4423 336.599 62.125C336.301 61.803 336.067 61.4063 335.899 60.935C335.731 60.4637 335.647 59.9223 335.647 59.311C335.647 58.8163 335.722 58.3543 335.871 57.925C336.025 57.4957 336.245 57.1247 336.529 56.812C336.814 56.4947 337.162 56.2473 337.572 56.07C337.983 55.888 338.445 55.797 338.958 55.797C339.383 55.797 339.775 55.8693 340.134 56.014C340.498 56.154 340.811 56.3593 341.072 56.63C341.338 56.896 341.546 57.2273 341.695 57.624C341.845 58.016 341.919 58.464 341.919 58.968C341.919 59.164 341.898 59.2947 341.856 59.36C341.814 59.4253 341.735 59.458 341.618 59.458H336.879C336.893 59.906 336.954 60.2957 337.061 60.627C337.173 60.9583 337.327 61.236 337.523 61.46C337.719 61.6793 337.953 61.845 338.223 61.957C338.494 62.0643 338.797 62.118 339.133 62.118C339.446 62.118 339.714 62.083 339.938 62.013C340.167 61.9383 340.363 61.859 340.526 61.775C340.69 61.691 340.825 61.614 340.932 61.544C341.044 61.4693 341.14 61.432 341.219 61.432C341.322 61.432 341.401 61.4717 341.457 61.551L341.807 62.006ZM349.235 56.861H346.512V63H345.266V56.861H342.543V55.909H349.235V56.861ZM356.331 63H355.078V56.861H351.676V63H350.423V55.909H356.331V63ZM364.527 63H363.281V56.889H361.041C360.985 57.7897 360.901 58.569 360.789 59.227C360.677 59.8803 360.542 60.438 360.383 60.9C360.229 61.3573 360.054 61.7307 359.858 62.02C359.667 62.3047 359.464 62.5263 359.249 62.685C359.039 62.8437 358.82 62.951 358.591 63.007C358.367 63.063 358.143 63.091 357.919 63.091C357.523 63.091 357.324 63.028 357.324 62.902V62.111H357.688C357.847 62.111 358.008 62.083 358.171 62.027C358.335 61.971 358.493 61.8637 358.647 61.705C358.806 61.5463 358.958 61.3247 359.102 61.04C359.247 60.7507 359.378 60.3773 359.494 59.92C359.616 59.458 359.718 58.9003 359.802 58.247C359.891 57.589 359.959 56.8097 360.005 55.909H364.527V63ZM371.247 58.681C371.247 58.3917 371.205 58.128 371.121 57.89C371.041 57.6473 370.922 57.4397 370.764 57.267C370.61 57.0897 370.421 56.9543 370.197 56.861C369.973 56.763 369.718 56.714 369.434 56.714C368.836 56.714 368.363 56.889 368.013 57.239C367.667 57.5843 367.453 58.065 367.369 58.681H371.247ZM372.255 62.006C372.101 62.1927 371.916 62.356 371.702 62.496C371.487 62.6313 371.256 62.7433 371.009 62.832C370.766 62.9207 370.514 62.986 370.253 63.028C369.991 63.0747 369.732 63.098 369.476 63.098C368.986 63.098 368.533 63.0163 368.118 62.853C367.707 62.685 367.35 62.4423 367.047 62.125C366.748 61.803 366.515 61.4063 366.347 60.935C366.179 60.4637 366.095 59.9223 366.095 59.311C366.095 58.8163 366.169 58.3543 366.319 57.925C366.473 57.4957 366.692 57.1247 366.977 56.812C367.261 56.4947 367.609 56.2473 368.02 56.07C368.43 55.888 368.892 55.797 369.406 55.797C369.83 55.797 370.222 55.8693 370.582 56.014C370.946 56.154 371.258 56.3593 371.52 56.63C371.786 56.896 371.993 57.2273 372.143 57.624C372.292 58.016 372.367 58.464 372.367 58.968C372.367 59.164 372.346 59.2947 372.304 59.36C372.262 59.4253 372.182 59.458 372.066 59.458H367.327C367.341 59.906 367.401 60.2957 367.509 60.627C367.621 60.9583 367.775 61.236 367.971 61.46C368.167 61.6793 368.4 61.845 368.671 61.957C368.941 62.0643 369.245 62.118 369.581 62.118C369.893 62.118 370.162 62.083 370.386 62.013C370.614 61.9383 370.81 61.859 370.974 61.775C371.137 61.691 371.272 61.614 371.38 61.544C371.492 61.4693 371.587 61.432 371.667 61.432C371.769 61.432 371.849 61.4717 371.905 61.551L372.255 62.006ZM379.98 55.909V63H378.734V58.184C378.734 58.0907 378.739 57.9903 378.748 57.883C378.757 57.7757 378.769 57.6683 378.783 57.561C378.741 57.6543 378.699 57.7407 378.657 57.82C378.615 57.8993 378.571 57.9717 378.524 58.037L375.101 62.692C375.05 62.7667 374.984 62.839 374.905 62.909C374.83 62.9743 374.746 63.007 374.653 63.007H373.897V55.916H375.15V60.732C375.15 60.8207 375.145 60.9187 375.136 61.026C375.127 61.1287 375.115 61.2337 375.101 61.341C375.143 61.2523 375.185 61.1707 375.227 61.096C375.269 61.0167 375.311 60.9443 375.353 60.879L378.776 56.224C378.827 56.1493 378.893 56.0793 378.972 56.014C379.051 55.944 379.138 55.909 379.231 55.909H379.98ZM377.019 54.194C377.21 54.194 377.371 54.173 377.502 54.131C377.633 54.0843 377.738 54.012 377.817 53.914C377.901 53.816 377.962 53.69 377.999 53.536C378.036 53.382 378.055 53.193 378.055 52.969H378.783C378.872 52.969 378.939 53.0087 378.986 53.088C379.033 53.1673 379.056 53.2537 379.056 53.347C379.056 53.5803 379.009 53.7903 378.916 53.977C378.823 54.1637 378.687 54.3247 378.51 54.46C378.337 54.5907 378.125 54.691 377.873 54.761C377.621 54.831 377.336 54.866 377.019 54.866C376.702 54.866 376.417 54.831 376.165 54.761C375.913 54.691 375.698 54.5907 375.521 54.46C375.348 54.3247 375.215 54.1637 375.122 53.977C375.029 53.7903 374.982 53.5803 374.982 53.347C374.982 53.2537 375.005 53.1673 375.052 53.088C375.099 53.0087 375.166 52.969 375.255 52.969H375.983C375.983 53.193 376.002 53.382 376.039 53.536C376.076 53.69 376.135 53.816 376.214 53.914C376.298 54.012 376.405 54.0843 376.536 54.131C376.667 54.173 376.828 54.194 377.019 54.194ZM386.885 57.169C386.848 57.2203 386.81 57.26 386.773 57.288C386.736 57.316 386.684 57.33 386.619 57.33C386.549 57.33 386.472 57.302 386.388 57.246C386.304 57.1853 386.199 57.12 386.073 57.05C385.952 56.98 385.8 56.917 385.618 56.861C385.441 56.8003 385.221 56.77 384.96 56.77C384.61 56.77 384.302 56.833 384.036 56.959C383.77 57.0803 383.546 57.2577 383.364 57.491C383.187 57.7243 383.051 58.0067 382.958 58.338C382.869 58.6693 382.825 59.0403 382.825 59.451C382.825 59.8803 382.874 60.263 382.972 60.599C383.07 60.9303 383.208 61.2103 383.385 61.439C383.567 61.663 383.784 61.8357 384.036 61.957C384.293 62.0737 384.58 62.132 384.897 62.132C385.2 62.132 385.45 62.097 385.646 62.027C385.842 61.9523 386.003 61.8707 386.129 61.782C386.26 61.6933 386.367 61.614 386.451 61.544C386.54 61.4693 386.626 61.432 386.71 61.432C386.813 61.432 386.892 61.4717 386.948 61.551L387.298 62.006C387.144 62.1973 386.969 62.3607 386.773 62.496C386.577 62.6313 386.365 62.7457 386.136 62.839C385.912 62.9277 385.676 62.993 385.429 63.035C385.182 63.077 384.93 63.098 384.673 63.098C384.23 63.098 383.817 63.0163 383.434 62.853C383.056 62.6897 382.727 62.454 382.447 62.146C382.167 61.8333 381.948 61.4507 381.789 60.998C381.63 60.5453 381.551 60.0297 381.551 59.451C381.551 58.9237 381.623 58.436 381.768 57.988C381.917 57.54 382.132 57.155 382.412 56.833C382.697 56.5063 383.044 56.252 383.455 56.07C383.87 55.888 384.346 55.797 384.883 55.797C385.382 55.797 385.821 55.8787 386.199 56.042C386.582 56.2007 386.92 56.427 387.214 56.721L386.885 57.169ZM391.358 62.09C391.61 62.09 391.827 62.0597 392.009 61.999C392.196 61.9337 392.35 61.845 392.471 61.733C392.593 61.6163 392.684 61.481 392.744 61.327C392.805 61.173 392.835 61.005 392.835 60.823C392.835 60.655 392.81 60.4987 392.758 60.354C392.707 60.2047 392.621 60.074 392.499 59.962C392.383 59.85 392.229 59.7613 392.037 59.696C391.846 59.6307 391.613 59.598 391.337 59.598H389.825V62.09H391.358ZM391.337 58.688C391.827 58.688 392.238 58.7463 392.569 58.863C392.905 58.9797 393.174 59.136 393.374 59.332C393.58 59.528 393.727 59.7543 393.815 60.011C393.904 60.2677 393.948 60.5337 393.948 60.809C393.948 61.1263 393.892 61.4203 393.78 61.691C393.668 61.957 393.503 62.188 393.283 62.384C393.064 62.5753 392.793 62.727 392.471 62.839C392.149 62.9463 391.778 63 391.358 63H388.635V55.909H389.825V58.688H391.337ZM396.755 55.909V63H395.509V55.909H396.755Z" fill="#331A2F" fill-opacity="0.9"/>
<line x1="260.5" y1="2.24021e-08" x2="260.5" y2="80" stroke="#331A2F" stroke-opacity="0.5"/>
<path d="M85.1934 48.2458C84.4285 48.2458 83.5469 48.1289 82.5483 47.8952L79.3934 47.0348L80.2539 44.4535C82.0385 45.0909 83.5256 45.4096 84.7154 45.4096C85.3527 45.4096 85.8838 45.2608 86.3087 44.9634C86.7336 44.666 86.9461 44.2623 86.9461 43.7524C86.9461 43.2426 86.808 42.8601 86.5318 42.6052C86.2556 42.3503 85.7457 42.1272 85.0022 41.936L83.2813 41.4898C80.9018 40.8737 79.7121 39.4715 79.7121 37.2833C79.7121 35.9661 80.2114 34.8826 81.2099 34.0328C82.2297 33.183 83.5575 32.7581 85.1934 32.7581C85.852 32.7581 86.6274 32.8749 87.5197 33.1086L90.6746 33.969L89.8142 36.5503C88.0933 35.913 86.7868 35.5943 85.8945 35.5943C85.2996 35.5943 84.8003 35.7536 84.3967 36.0723C83.993 36.3697 83.7912 36.7628 83.7912 37.2514C83.7912 37.7613 83.9293 38.1437 84.2055 38.3987C84.4817 38.6536 84.9915 38.8767 85.7351 39.0679L87.4241 39.514C88.6988 39.8539 89.6124 40.3745 90.1647 41.0755C90.7171 41.7554 90.9933 42.6371 90.9933 43.7206C90.9933 45.0165 90.5047 46.1 89.5274 46.9711C88.5501 47.8209 87.1054 48.2458 85.1934 48.2458ZM98.8228 48.2458C97.2294 48.2458 96.1034 47.8528 95.4448 47.0667C94.8075 46.2806 94.4888 45.0803 94.4888 43.4656V35.8492H92.1306V33.0449H94.4888V29.3163L98.536 28.5196V33.0449H102.041V35.8492H98.536V43.5294C98.536 44.7828 99.0459 45.4096 100.066 45.4096C100.682 45.4096 101.34 45.2184 102.041 44.8359L102.679 47.226C101.51 47.9059 100.225 48.2458 98.8228 48.2458ZM108.746 48.2458C107.301 48.2458 106.154 47.7996 105.304 46.9073C104.454 46.0151 104.029 44.9528 104.029 43.7206C104.029 42.807 104.327 42.0741 104.922 41.5217C105.538 40.9481 106.494 40.5019 107.79 40.1832L112.92 38.9085V37.602C112.92 36.9858 112.729 36.4972 112.347 36.136C111.986 35.7749 111.476 35.5943 110.817 35.5943C110.073 35.5943 108.395 36.1573 105.782 37.2833L104.667 34.702L108.299 33.3635C109.404 32.9599 110.212 32.7581 110.721 32.7581C112.655 32.7581 114.174 33.2679 115.279 34.2877C116.405 35.2862 116.968 36.6034 116.968 38.2393V43.7206C116.968 44.1242 117.031 44.7297 117.159 45.537C117.307 46.3231 117.499 46.9923 117.732 47.5447L114.259 48.2458C113.834 47.7784 113.388 47.1304 112.92 46.3019C111.497 47.5978 110.105 48.2458 108.746 48.2458ZM110.18 45.4096C111.008 45.4096 111.922 44.9315 112.92 43.9755V40.7569L109.734 41.681C108.714 41.9785 108.204 42.5415 108.204 43.37C108.204 44.0074 108.384 44.5066 108.746 44.8678C109.107 45.229 109.585 45.4096 110.18 45.4096ZM125.385 48.2458C123.792 48.2458 122.666 47.8528 122.007 47.0667C121.37 46.2806 121.051 45.0803 121.051 43.4656V35.8492H118.693V33.0449H121.051V29.3163L125.098 28.5196V33.0449H128.604V35.8492H125.098V43.5294C125.098 44.7828 125.608 45.4096 126.628 45.4096C127.244 45.4096 127.903 45.2184 128.604 44.8359L129.241 47.226C128.073 47.9059 126.787 48.2458 125.385 48.2458ZM170.394 47.959H166.347V39.2591C166.347 37.9844 166.156 37.0602 165.773 36.4866C165.412 35.8917 164.828 35.5943 164.021 35.5943C163.213 35.5943 162.342 36.0723 161.407 37.0283V47.959H157.36V39.2591C157.36 37.9844 157.18 37.0602 156.818 36.4866C156.457 35.8917 155.862 35.5943 155.034 35.5943C154.248 35.5943 153.377 36.0723 152.421 37.0283V47.959H148.373V37.2833C148.373 36.8796 148.299 36.2848 148.15 35.4987C148.023 34.6914 147.842 34.0115 147.609 33.4591L151.05 32.7581C151.496 33.2042 151.953 33.8522 152.421 34.702C153.759 33.406 155.151 32.7581 156.595 32.7581C158.741 32.7581 160.196 33.5123 160.961 35.0207C161.429 34.4046 162.098 33.8734 162.969 33.4273C163.84 32.9811 164.711 32.7581 165.582 32.7581C167.197 32.7581 168.397 33.2255 169.183 34.1602C169.99 35.095 170.394 36.5503 170.394 38.5261V47.959ZM177.742 48.2458C176.297 48.2458 175.15 47.7996 174.3 46.9073C173.45 46.0151 173.025 44.9528 173.025 43.7206C173.025 42.807 173.323 42.0741 173.918 41.5217C174.534 40.9481 175.49 40.5019 176.786 40.1832L181.917 38.9085V37.602C181.917 36.9858 181.725 36.4972 181.343 36.136C180.982 35.7749 180.472 35.5943 179.813 35.5943C179.07 35.5943 177.391 36.1573 174.778 37.2833L173.663 34.702L177.296 33.3635C178.4 32.9599 179.208 32.7581 179.718 32.7581C181.651 32.7581 183.17 33.2679 184.275 34.2877C185.401 35.2862 185.964 36.6034 185.964 38.2393V43.7206C185.964 44.1242 186.027 44.7297 186.155 45.537C186.304 46.3231 186.495 46.9923 186.729 47.5447L183.255 48.2458C182.83 47.7784 182.384 47.1304 181.917 46.3019C180.493 47.5978 179.102 48.2458 177.742 48.2458ZM179.176 45.4096C180.004 45.4096 180.918 44.9315 181.917 43.9755V40.7569L178.73 41.681C177.71 41.9785 177.2 42.5415 177.2 43.37C177.2 44.0074 177.381 44.5066 177.742 44.8678C178.103 45.229 178.581 45.4096 179.176 45.4096ZM193.641 47.959H189.594V37.2833C189.594 36.8796 189.519 36.2848 189.371 35.4987C189.243 34.6914 189.063 34.0115 188.829 33.4591L192.271 32.7581C192.929 33.4167 193.386 34.309 193.641 35.435C194.066 34.5851 194.629 33.9265 195.33 33.4591C196.052 32.9918 196.828 32.7581 197.656 32.7581C198.124 32.7581 198.549 32.8324 198.931 32.9811L198.23 36.4547H197.178C196.18 36.4547 195.394 36.699 194.82 37.1877C194.268 37.6551 193.875 38.4411 193.641 39.5459V47.959ZM214.686 47.959H209.714L204.775 40.247V47.959H200.727V26.6713L204.775 25.8746V39.1316L209.81 33.0449H214.367L208.376 39.7052L214.686 47.959ZM221.94 48.2458C219.539 48.2458 217.723 47.5341 216.49 46.1107C215.279 44.666 214.674 42.7752 214.674 40.4382C214.674 38.1012 215.301 36.2423 216.554 34.8613C217.808 33.4591 219.55 32.7581 221.78 32.7581C226.093 32.7581 228.25 34.9994 228.25 39.4822C228.25 39.9496 228.196 40.3426 228.09 40.6613H218.849C218.849 42.2547 219.135 43.4444 219.709 44.2305C220.304 45.0165 221.122 45.4096 222.163 45.4096C223.331 45.4096 224.861 44.9847 226.752 44.1349L227.867 46.7161L224.489 47.959C223.915 48.1502 223.066 48.2458 221.94 48.2458ZM221.557 35.5943C220.707 35.5943 220.038 35.8917 219.55 36.4866C219.082 37.0815 218.849 37.825 218.849 38.7173H224.043C224.043 36.6353 223.214 35.5943 221.557 35.5943ZM236.185 48.2458C234.592 48.2458 233.466 47.8528 232.807 47.0667C232.17 46.2806 231.851 45.0803 231.851 43.4656V35.8492H229.493V33.0449H231.851V29.3163L235.899 28.5196V33.0449H239.404V35.8492H235.899V43.5294C235.899 44.7828 236.408 45.4096 237.428 45.4096C238.044 45.4096 238.703 45.2184 239.404 44.8359L240.041 47.226C238.873 47.9059 237.588 48.2458 236.185 48.2458Z" fill="#54618E"/>
<path d="M143.753 47.959H139.897V43.0513H131.197L130.337 40.5657L139.419 27.5636H143.753V40.0558H145.792V43.0513H143.753V47.959ZM139.897 40.0558V31.7702L134.256 40.0558H139.897Z" fill="#D653D2"/>
<mask id="mask0_1457_20126" style="mask-type:alpha" maskUnits="userSpaceOnUse" x="0" y="11" width="60" height="58">
<ellipse cx="30" cy="40" rx="30" ry="29" fill="url(#paint0_linear_1457_20126)"/>
</mask>
<g mask="url(#mask0_1457_20126)">
<ellipse cx="30" cy="40" rx="30" ry="29" fill="url(#paint1_linear_1457_20126)"/>
<path d="M39.539 48.0481V15.8146C39.539 15.3216 39.554 14.7851 39.584 14.2051C39.644 13.6251 39.704 13.0306 39.764 12.4216L12.224 48.0481H39.539ZM65.0317 48.0481V50.3101C65.0317 50.6291 64.9267 50.8901 64.7167 51.0931C64.5367 51.2671 64.2367 51.3541 63.8167 51.3541H43.319V69.0151H39.539V51.3541H9.43402C8.98402 51.3541 8.63902 51.2671 8.39902 51.0931C8.15902 50.8901 7.99402 50.6291 7.90402 50.3101L7.49902 48.2656L39.494 7.37561H43.319V48.0481H65.0317Z" fill="white"/>
</g>
<defs>
<linearGradient id="paint0_linear_1457_20126" x1="69" y1="-6.4" x2="19.6538" y2="70.5417" gradientUnits="userSpaceOnUse">
<stop stop-color="#FF00AA"/>
<stop offset="1" stop-color="#8912DE"/>
</linearGradient>
<linearGradient id="paint1_linear_1457_20126" x1="69" y1="-6.4" x2="19.6538" y2="70.5417" gradientUnits="userSpaceOnUse">
<stop stop-color="#FF00AA"/>
<stop offset="1" stop-color="#8912DE"/>
</linearGradient>
</defs>
</svg>
